<?xml version="1.0" encoding="utf-8"?>
<!-- Generator: Adobe Illustrator 24.2.0, SVG Export Plug-In . SVG Version: 6.00 Build 0)  -->
<svg version="1.1" id="レイヤー_1" xmlns="http://www.w3.org/2000/svg" xmlns:xlink="http://www.w3.org/1999/xlink" x="0px"
	 y="0px" viewBox="0 0 919.2 186.14" style="enable-background:new 0 0 919.2 186.14;" xml:space="preserve">
	<style type="text/css">
		.st0{fill:none;stroke:#000000;stroke-width:10.732;stroke-miterlimit:10;}
	</style>
	<g>
		<path d="M267.95,80.16c-2.14,0.33-4.12,1.04-5.94,2.13c-1.82,1.1-3.35,3.13-4.61,6.11c-3.26,7.96-5.87,14.39-7.83,19.28
			c-1.96,4.89-4.7,11.95-8.24,21.17c-0.75,1.91-1.64,4.54-2.69,7.9s-1.88,6.1-2.48,8.24H222.5L204.9,97.43L188.42,145h-13.47
			c-4.71-12.72-8.41-22.58-11.11-29.59c-2.7-7.01-6.31-16.27-10.83-27.77c-0.84-2.19-2.27-3.91-4.3-5.17
			c-2.03-1.26-4.11-2.03-6.25-2.31v-5.1h42.9v5.1c-1.59,0.14-3.47,0.51-5.66,1.12c-2.19,0.61-3.29,1.42-3.29,2.44
			c0,0.47,0.06,0.87,0.17,1.22c0.11,0.35,0.31,0.99,0.59,1.92c1.26,3.64,2.98,8.34,5.18,14.11c2.19,5.77,4.76,12.48,7.7,20.13
			l15.52-46.05h13.86l17.63,47.46c2.7-7.16,4.78-12.8,6.25-16.92c1.47-4.11,3.32-9.43,5.55-15.94c0.32-0.98,0.52-1.85,0.59-2.62
			c0.07-0.77,0.08-1.27,0.03-1.5c0-0.84-0.42-1.6-1.26-2.27c-0.84-0.68-1.84-1.23-3-1.64c-1.16-0.42-2.29-0.74-3.38-0.98
			c-1.09-0.23-2.01-0.39-2.75-0.49v-5.1h28.86V80.16z"/>
		<path d="M333.77,83.31c3.45,3.22,6.08,7.06,7.9,11.53c1.82,4.47,2.73,9.31,2.73,14.53c0,5.17-0.9,10.05-2.69,14.64
			c-1.79,4.59-4.41,8.51-7.86,11.77c-3.68,3.49-8.07,6.17-13.17,8.04c-5.1,1.86-10.93,2.79-17.5,2.79c-5.68,0-10.91-0.81-15.68-2.44
			c-4.78-1.63-9-4.07-12.68-7.34c-3.54-3.12-6.34-6.97-8.38-11.56c-2.05-4.59-3.07-9.72-3.07-15.4c0-5.59,0.9-10.56,2.69-14.92
			c1.79-4.36,4.48-8.23,8.07-11.64c3.45-3.26,7.7-5.78,12.75-7.58c5.05-1.79,10.7-2.69,16.94-2.69c6.52,0,12.26,0.9,17.22,2.69
			C325.98,77.52,330.23,80.05,333.77,83.31z M315.88,131.72c1.02-2.61,1.78-5.77,2.27-9.5s0.73-8.06,0.73-13
			c0-3.26-0.23-6.99-0.7-11.18s-1.16-7.5-2.1-9.92c-1.12-2.93-2.67-5.24-4.65-6.92c-1.98-1.68-4.48-2.51-7.51-2.51
			c-3.31,0-5.95,0.91-7.93,2.73c-1.98,1.82-3.51,4.17-4.58,7.05c-0.98,2.66-1.65,5.77-2.03,9.33c-0.37,3.56-0.56,7.28-0.56,11.14
			c0,5.08,0.16,9.28,0.49,12.61c0.32,3.33,1.12,6.67,2.37,10.03c1.07,2.89,2.61,5.17,4.61,6.85c2,1.68,4.54,2.51,7.62,2.51
			c2.79,0,5.19-0.78,7.2-2.34C313.14,137.05,314.72,134.76,315.88,131.72z"/>
		<path d="M414.41,87.85c0,3.54-1.1,6.65-3.29,9.33c-2.19,2.68-5.08,4.02-8.66,4.02c-3.4,0-6.28-0.86-8.63-2.57
			c-2.35-1.72-3.53-4.25-3.53-7.59c0-1.62,0.12-2.89,0.35-3.79c0.23-0.9,0.44-1.75,0.63-2.54c-2.14,0.09-4.4,0.83-6.78,2.22
			c-2.38,1.39-4.47,3.23-6.29,5.54v38.36c0,1.63,0.26,2.98,0.77,4.05c0.51,1.07,1.37,1.91,2.59,2.51c1.02,0.51,2.69,0.94,5,1.29
			c2.31,0.35,3.97,0.55,5,0.59v5.1h-46.74v-5.1c1.16-0.09,2.34-0.22,3.53-0.38c1.19-0.16,2.2-0.39,3.04-0.67
			c1.49-0.51,2.52-1.3,3.07-2.38c0.56-1.07,0.84-2.47,0.84-4.19V90.99c0-1.68-0.4-3.18-1.19-4.51c-0.79-1.33-1.75-2.39-2.87-3.18
			c-0.84-0.56-1.9-1.02-3.18-1.4c-1.28-0.37-2.69-0.63-4.23-0.77v-5.1l33.33-1.82l1.05,1.05V85.4h0.28
			c3.21-3.73,6.63-6.65,10.24-8.77c3.61-2.12,7.37-3.18,11.28-3.18c4.33,0,7.81,1.34,10.45,4.02
			C413.09,80.15,414.41,83.61,414.41,87.85z"/>
		<path d="M503.15,144.37h-32.94c-4.05-7.11-7.75-13.13-11.1-18.08s-6.52-9.54-9.49-13.76l-4.12,3.48v15.23
			c0,1.68,0.25,3.05,0.73,4.12c0.49,1.07,1.43,1.86,2.83,2.38c0.84,0.37,1.82,0.7,2.93,0.98c1.12,0.28,2.24,0.47,3.35,0.56v5.1
			h-43.39v-5.1c1.17-0.09,2.34-0.22,3.52-0.38c1.17-0.16,2.2-0.39,3.09-0.67c1.5-0.51,2.52-1.3,3.06-2.38
			c0.54-1.07,0.81-2.47,0.81-4.19v-77.9c0-1.54-0.34-3.13-1.01-4.79c-0.68-1.65-1.67-2.9-2.97-3.74c-0.89-0.56-2.21-1.02-3.98-1.4
			c-1.77-0.37-3.38-0.6-4.82-0.7v-5.1l34.79-1.82l1.05,1.12v72.1c3.44-3.07,7.31-6.64,11.62-10.69c4.3-4.05,7.76-7.41,10.36-10.06
			c1.54-1.59,2.39-2.78,2.55-3.6c0.16-0.81,0.24-1.32,0.24-1.5c0-0.84-0.73-1.54-2.21-2.1c-1.47-0.56-3.68-1.05-6.64-1.47v-4.96
			h35.49v4.82c-4.65,1.31-8.2,2.53-10.64,3.67c-2.44,1.14-5.1,2.67-7.99,4.58c-1.91,1.26-3.75,2.58-5.54,3.95
			c-1.79,1.38-3.84,3.1-6.17,5.15c4.56,6.61,8.76,12.73,12.62,18.37c3.86,5.63,7.91,11.59,12.14,17.88c1.44,2.19,3.23,3.66,5.37,4.4
			c2.14,0.75,4.28,1.21,6.42,1.4V144.37z"/>
		<path d="M573.08,141.16c-2.98,1.3-6.17,2.48-9.57,3.53c-3.4,1.05-7.55,1.57-12.44,1.57c-7.27,0-12.66-1.77-16.17-5.3
			c-3.52-3.54-5.28-8.58-5.28-15.15V82.96h-12.58v-7.62h12.86V54.17h22.64v21.17h19.63v7.62h-19.49v38.24c0,5.44,0.76,9.3,2.28,11.58
			c1.52,2.28,4.24,3.42,8.17,3.42c1.26,0,3.02-0.09,5.26-0.28c2.24-0.19,3.81-0.4,4.7-0.63V141.16z"/>
		<path d="M646.44,83.31c3.45,3.22,6.08,7.06,7.9,11.53c1.82,4.47,2.73,9.31,2.73,14.53c0,5.17-0.9,10.05-2.69,14.64
			c-1.79,4.59-4.41,8.51-7.86,11.77c-3.68,3.49-8.07,6.17-13.17,8.04c-5.1,1.86-10.93,2.79-17.5,2.79c-5.68,0-10.91-0.81-15.68-2.44
			c-4.78-1.63-9-4.07-12.68-7.34c-3.54-3.12-6.33-6.97-8.38-11.56c-2.05-4.59-3.07-9.72-3.07-15.4c0-5.59,0.9-10.56,2.69-14.92
			c1.79-4.36,4.48-8.23,8.07-11.64c3.45-3.26,7.7-5.78,12.75-7.58c5.05-1.79,10.7-2.69,16.94-2.69c6.52,0,12.26,0.9,17.22,2.69
			C638.65,77.52,642.9,80.05,646.44,83.31z M628.55,131.72c1.02-2.61,1.78-5.77,2.27-9.5c0.49-3.73,0.73-8.06,0.73-13
			c0-3.26-0.23-6.99-0.7-11.18s-1.16-7.5-2.1-9.92c-1.12-2.93-2.67-5.24-4.65-6.92c-1.98-1.68-4.49-2.51-7.51-2.51
			c-3.31,0-5.95,0.91-7.93,2.73c-1.98,1.82-3.5,4.17-4.57,7.05c-0.98,2.66-1.66,5.77-2.03,9.33c-0.37,3.56-0.56,7.28-0.56,11.14
			c0,5.08,0.16,9.28,0.49,12.61c0.32,3.33,1.12,6.67,2.37,10.03c1.07,2.89,2.61,5.17,4.61,6.85c2,1.68,4.54,2.51,7.62,2.51
			c2.79,0,5.19-0.78,7.2-2.34C625.8,137.05,627.39,134.76,628.55,131.72z"/>
		<path d="M734.55,83.31c3.45,3.22,6.08,7.06,7.9,11.53c1.82,4.47,2.73,9.31,2.73,14.53c0,5.17-0.9,10.05-2.69,14.64
			c-1.79,4.59-4.41,8.51-7.86,11.77c-3.68,3.49-8.07,6.17-13.17,8.04c-5.1,1.86-10.93,2.79-17.5,2.79c-5.68,0-10.91-0.81-15.68-2.44
			c-4.78-1.63-9-4.07-12.68-7.34c-3.54-3.12-6.33-6.97-8.38-11.56c-2.05-4.59-3.07-9.72-3.07-15.4c0-5.59,0.9-10.56,2.69-14.92
			c1.79-4.36,4.48-8.23,8.07-11.64c3.45-3.26,7.7-5.78,12.75-7.58c5.05-1.79,10.7-2.69,16.94-2.69c6.52,0,12.26,0.9,17.22,2.69
			C726.76,77.52,731.01,80.05,734.55,83.31z M716.66,131.72c1.02-2.61,1.78-5.77,2.27-9.5c0.49-3.73,0.73-8.06,0.73-13
			c0-3.26-0.23-6.99-0.7-11.18s-1.16-7.5-2.1-9.92c-1.12-2.93-2.67-5.24-4.65-6.92c-1.98-1.68-4.49-2.51-7.51-2.51
			c-3.31,0-5.95,0.91-7.93,2.73c-1.98,1.82-3.5,4.17-4.57,7.05c-0.98,2.66-1.66,5.77-2.03,9.33c-0.37,3.56-0.56,7.28-0.56,11.14
			c0,5.08,0.16,9.28,0.49,12.61c0.32,3.33,1.12,6.67,2.37,10.03c1.07,2.89,2.61,5.17,4.61,6.85c2,1.68,4.54,2.51,7.62,2.51
			c2.79,0,5.19-0.78,7.2-2.34C713.91,137.05,715.5,134.76,716.66,131.72z"/>
		<path d="M791.15,144.37h-44.02v-5.1c1.22-0.09,2.4-0.21,3.55-0.35c1.15-0.14,2.17-0.37,3.06-0.7c1.5-0.56,2.52-1.36,3.06-2.41
			s0.81-2.43,0.81-4.16V54.24c0-1.77-0.36-3.41-1.08-4.93c-0.72-1.51-1.69-2.66-2.9-3.46c-0.94-0.6-2.34-1.19-4.23-1.75
			c-1.89-0.56-3.55-0.88-5-0.98v-5.1l35.21-1.82l1.05,1.12v93.42c0,1.72,0.3,3.12,0.91,4.19c0.61,1.07,1.59,1.91,2.95,2.51
			c0.94,0.42,1.92,0.79,2.95,1.12c1.03,0.33,2.25,0.56,3.66,0.7V144.37z"/>
		<path d="M830.07,146.75c-4.52,0-8.93-0.66-13.24-1.99s-7.65-2.74-10.02-4.23l-2.1,4.75h-5.45l-0.91-26.06h5.1
			c0.7,2.1,1.86,4.46,3.49,7.09c1.63,2.63,3.49,5,5.59,7.09c2.19,2.1,4.69,3.87,7.51,5.31c2.82,1.44,5.83,2.16,9.05,2.16
			c4.24,0,7.39-0.83,9.47-2.48c2.07-1.65,3.11-4.2,3.11-7.65c0-1.86-0.47-3.4-1.4-4.61c-0.93-1.21-2.21-2.26-3.84-3.14
			c-1.82-0.93-3.81-1.72-5.97-2.38c-2.16-0.65-4.83-1.44-8-2.38c-3.17-0.93-5.88-1.87-8.14-2.83c-2.26-0.95-4.6-2.46-7.02-4.5
			c-2.1-1.82-3.77-4.01-5.03-6.57c-1.26-2.56-1.88-5.61-1.88-9.15c0-6.57,2.76-11.88,8.28-15.93c5.52-4.05,12.75-6.08,21.7-6.08
			c4.24,0,8.14,0.43,11.7,1.29c3.56,0.86,6.56,1.8,8.98,2.83l1.47-4.12h5.31L858.92,97h-4.89c-1.63-4.84-4.42-9.02-8.38-12.54
			c-3.96-3.51-8.22-5.28-12.79-5.28c-3.59,0-6.41,0.75-8.46,2.24c-2.05,1.49-3.07,3.56-3.07,6.22c0,3.54,1.5,6.1,4.5,7.68
			c3,1.59,7.2,3.07,12.59,4.47c8.32,2.14,14.42,5.07,18.28,8.77c3.86,3.7,5.79,8.42,5.79,14.15c0,7.64-2.99,13.56-8.98,17.75
			C847.52,144.65,839.71,146.75,830.07,146.75z"/>
	</g>
	<polygon class="st0" points="124.45,131.47 124.45,71.57 72.57,41.61 20.69,71.57 20.69,131.47 72.57,161.43 "/>
	<polygon points="898.51,138.34 898.51,123.68 885.81,116.34 873.1,123.68 873.1,138.34 885.81,145.68 "/>
	<polyline class="st0" points="20.69,71.57 72.57,101.52 124.45,71.57 "/>
	<line class="st0" x1="72.57" y1="161.43" x2="72.57" y2="101.52"/>
	<polyline class="st0" points="20.69,101.52 72.57,131.47 124.45,101.52 "/>
</svg>
